<?xml version="1.0" standalone="no"?>
<!DOCTYPE svg PUBLIC "-//W3C//DTD SVG 20010904//EN"
 "http://www.w3.org/TR/2001/REC-SVG-20010904/DTD/svg10.dtd">
<svg version="1.0" xmlns="http://www.w3.org/2000/svg"
 width="400.000000pt" height="400.000000pt" viewBox="0 0 400.000000 400.000000"
 preserveAspectRatio="xMidYMid meet">
<metadata>
Created by potrace 1.11, written by Peter Selinger 2001-2013
</metadata>
<g transform="translate(0.000000,400.000000) scale(0.100000,-0.100000)"
fill="#000000" stroke="none">
<path d="M0 2000 l0 -2000 2000 0 2000 0 0 2000 0 2000 -2000 0 -2000 0 0
-2000z m1620 -5 l0 -395 -320 0 -320 0 0 395 0 395 320 0 320 0 0 -395z m294
259 c19 -18 21 -55 4 -72 -10 -10 -8 -19 5 -42 25 -42 0 -40 -34 1 -29 35 -49
32 -49 -7 0 -15 -6 -24 -15 -24 -12 0 -15 16 -15 80 l0 80 44 0 c27 0 51 -6
60 -16z m196 7 c0 -6 -17 -11 -37 -13 -30 -2 -38 -7 -38 -23 0 -15 8 -21 33
-23 43 -4 41 -22 -3 -22 -28 0 -35 -4 -35 -20 0 -17 7 -20 40 -20 29 0 40 -4
40 -15 0 -12 -13 -15 -55 -15 l-55 0 0 80 0 80 55 0 c30 0 55 -4 55 -9z m120
-37 l23 -46 25 46 c16 29 32 46 44 46 17 0 19 -7 16 -77 -4 -92 -25 -115 -30
-31 l-3 53 -19 -37 c-11 -21 -25 -38 -31 -38 -6 0 -20 17 -31 38 l-19 37 -3
-52 c-2 -38 -7 -53 -18 -53 -11 0 -14 17 -14 80 0 71 2 80 18 80 12 0 27 -17
42 -46z m212 10 l21 -36 20 36 c12 20 27 36 34 36 18 0 16 -9 -12 -55 -13 -22
-25 -55 -25 -72 0 -23 -5 -33 -15 -33 -10 0 -15 10 -15 27 0 14 -14 50 -30 80
-24 41 -27 53 -15 53 9 0 25 -16 37 -36z m-522 -224 c0 -5 -18 -10 -40 -10
-36 0 -40 -2 -40 -25 0 -22 4 -25 35 -25 19 0 35 -4 35 -10 0 -5 -16 -10 -35
-10 -33 0 -35 -2 -35 -35 0 -24 -5 -35 -15 -35 -12 0 -15 16 -15 80 l0 80 55
0 c30 0 55 -4 55 -10z m166 -7 c18 -24 17 -48 -2 -67 -14 -14 -14 -18 0 -38
19 -27 20 -38 3 -38 -7 0 -21 14 -30 30 -22 37 -45 39 -49 3 -2 -14 -9 -28
-15 -31 -10 -3 -13 17 -13 77 l0 81 46 0 c33 0 51 -5 60 -17z m154 15 c0 -2
14 -36 30 -77 35 -86 34 -81 14 -81 -9 0 -18 9 -21 20 -4 15 -14 20 -38 20
-24 0 -34 -5 -38 -20 -3 -11 -13 -20 -22 -20 -9 0 -15 3 -13 8 2 4 16 40 31
80 17 42 35 72 43 72 8 0 14 -1 14 -2z m179 -43 c18 -25 37 -42 42 -39 5 3 9
23 9 45 0 42 16 53 25 17 8 -38 0 -131 -11 -135 -7 -2 -30 19 -52 47 l-41 51
-3 -47 c-2 -27 -8 -49 -15 -52 -10 -3 -13 17 -13 77 0 96 9 101 59 36z m260
31 c16 -19 -5 -32 -25 -15 -26 21 -64 -4 -64 -44 0 -18 5 -38 12 -45 15 -15
55 -16 64 -1 4 8 10 7 18 -1 8 -8 6 -15 -8 -26 -71 -52 -159 63 -96 126 23 23
82 27 99 6z m101 -67 c0 -60 -3 -80 -12 -77 -9 3 -14 31 -16 81 -2 64 0 77 13
77 12 0 15 -15 15 -81z m177 64 c3 -9 -7 -12 -33 -10 -52 3 -55 -19 -5 -39 22
-9 43 -25 47 -36 13 -43 -56 -75 -107 -47 -30 16 -14 28 30 22 57 -8 61 13 7
37 -36 15 -46 24 -46 43 0 12 6 29 12 35 16 16 90 11 95 -5z m-1127 -283 c16
-37 33 -29 26 13 -3 18 -3 26 0 19 4 -10 9 -10 19 -2 12 10 13 5 8 -24 -7 -46
9 -46 26 0 7 19 15 33 18 30 8 -7 -27 -86 -37 -86 -5 0 -11 7 -14 17 -6 14 -8
14 -21 -3 -13 -18 -15 -17 -30 21 -10 22 -20 44 -23 49 -3 5 0 6 5 3 6 -4 16
-20 23 -37z m173 33 c-13 -2 -23 -11 -23 -19 0 -8 10 -15 23 -15 l22 -2 -22
-4 c-13 -2 -23 -11 -23 -18 0 -7 10 -16 23 -18 15 -4 12 -5 -8 -4 -27 2 -30 5
-31 37 -2 45 2 50 34 49 24 -2 24 -2 5 -6z m122 -38 c0 -38 -2 -40 -32 -43
-33 -3 -33 -3 -33 43 0 46 0 46 33 43 30 -3 32 -5 32 -43z m160 20 c20 -32 2
-65 -35 -65 -29 0 -30 1 -30 46 0 43 1 45 26 42 15 -2 32 -12 39 -23z m83 18
c-34 -5 -38 -32 -5 -34 l22 -2 -22 -4 c-32 -6 -29 -31 5 -36 25 -4 25 -4 -5
-6 -33 -1 -33 0 -33 44 0 44 0 45 33 44 30 -2 30 -2 5 -6z m107 -29 c9 21 18
36 20 34 7 -6 -27 -88 -35 -88 -8 0 -41 74 -39 88 0 4 9 -11 19 -33 l19 -40
16 39z m93 29 c-34 -5 -38 -32 -5 -34 l22 -2 -22 -4 c-32 -6 -29 -31 5 -36 25
-4 25 -4 -5 -6 -33 -1 -33 0 -33 44 0 44 0 45 33 44 30 -2 30 -2 5 -6z m100
-76 c24 -4 24 -4 -5 -6 l-33 -1 2 48 1 47 4 -42 c4 -36 7 -42 31 -46z m121 69
c7 -8 11 -27 9 -43 -2 -23 -9 -29 -32 -31 -31 -4 -46 10 -46 44 0 40 45 59 69
30z m106 -16 c0 -18 -6 -26 -22 -28 -12 -2 -24 -11 -26 -20 -3 -9 -5 5 -6 31
-1 47 0 48 27 45 21 -2 27 -8 27 -28z m106 -1 c10 17 21 31 24 31 3 0 4 -21 4
-47 -2 -46 -2 -46 -8 -13 -6 34 -7 34 -19 13 -7 -13 -17 -23 -22 -23 -5 0 -12
10 -16 23 -7 20 -9 19 -15 -13 -6 -32 -6 -31 -8 15 l-1 50 21 -33 22 -33 18
30z m107 24 c-34 -5 -38 -32 -5 -34 l22 -2 -22 -4 c-32 -6 -29 -31 5 -36 25
-4 25 -4 -5 -6 -33 -1 -33 0 -33 44 0 44 0 45 33 44 30 -2 30 -2 5 -6z m125
-26 c3 33 4 32 5 -12 l1 -50 -29 33 c-16 17 -31 32 -33 32 -2 0 -2 -13 1 -30
3 -18 0 -30 -7 -30 -12 0 -15 48 -5 74 5 13 12 9 34 -20 l29 -35 4 38z m105
26 c-13 -3 -18 -15 -18 -44 0 -21 -4 -39 -10 -39 -5 0 -10 18 -10 39 0 22 -5
42 -12 44 -7 3 5 5 27 5 22 0 32 -2 23 -5z"/>
<path d="M1030 1995 l0 -345 275 0 275 0 0 345 0 345 -275 0 -275 0 0 -345z
m440 10 l0 -245 -65 0 -65 0 0 245 0 245 65 0 65 0 0 -245z m-210 -100 l0
-155 -70 0 -70 0 0 155 0 155 70 0 70 0 0 -155z"/>
<path d="M1847 2243 c-4 -3 -7 -17 -7 -30 0 -21 4 -24 27 -21 18 2 29 10 31
22 5 26 -33 48 -51 29z"/>
<path d="M2010 1970 c0 -25 4 -30 24 -30 28 0 42 26 25 46 -6 8 -20 14 -30 14
-14 0 -19 -7 -19 -30z"/>
<path d="M2212 1956 c-12 -27 -7 -36 20 -36 15 0 18 5 13 23 -11 35 -21 39
-33 13z"/>
<path d="M2070 1736 c0 -11 9 -16 26 -16 31 0 28 23 -4 28 -15 2 -22 -2 -22
-12z"/>
<path d="M2070 1696 c0 -11 9 -16 26 -16 31 0 28 23 -4 28 -15 2 -22 -2 -22
-12z"/>
<path d="M2230 1715 c0 -32 3 -36 23 -33 17 2 22 10 22 33 0 23 -5 31 -22 33
-20 3 -23 -1 -23 -33z"/>
<path d="M2742 1741 c-8 -4 -12 -19 -10 -32 2 -18 9 -24 28 -24 19 0 26 6 28
24 3 20 -11 41 -28 41 -3 0 -11 -4 -18 -9z"/>
<path d="M2850 1731 c0 -15 6 -21 21 -21 25 0 22 33 -4 38 -12 2 -17 -3 -17
-17z"/>
</g>
</svg>
